<svg id="Layer_1" height="512" viewBox="0 0 512 512" width="512" xmlns="http://www.w3.org/2000/svg" data-name="Layer 1"><path d="m5.105 215.458c1.215.472 121.616 48.165 129.973 129.791 7.441 72.695 22.563 120.111 46.231 144.958 19.087 20.037 39.91 21.888 56.376 21.888 1.937 0 3.815-.026 5.621-.051 1.614-.022 3.181-.043 4.693-.043 29.232 0 53.138-15.452 73.084-47.24 11-17.525 25.138-45.257 46.633-118.031l34.272-114.46c3.638-12.148 48.952-82.4 76.661-123.822a8 8 0 0 0 -9.458-11.938l-127.144 47.678c-17.147-89.213-52.754-144.188-93.932-144.188-26.365 0-50.315 21.846-69.258 63.175-16.482 35.961-27.932 84.825-32.529 138.462q-29.128-6.177-64.621-6.747a432.723 432.723 0 0 0 -75.113 5.234 8 8 0 0 0 -1.488 15.333zm446.58-95.3c-21.709 32.977-60.817 93.467-65.025 107.518l-34.279 114.492c-23.423 79.3-45.208 131.415-79.084 148.068 8.649-24.316 8.3-69.793-1.042-135.81.524-26.384 33.615-82.488 46.435-102.039l-13.379-8.775c-.5.756-12.282 18.774-24.261 41.327q-9.072 17.081-14.837 31.121c-.382-2.225-.77-4.462-1.169-6.725a130.94 130.94 0 0 0 -8.475-28.839c37.854-82.7 60.388-105.934 90.638-121.155zm-288.372 71.842h36.687v-16h-34.774q1.646-12.268 3.784-24h30.99v-16h-27.785c2.449-11.206 5.237-21.914 8.346-32h27.439v-16h-22.05q3.52-9.568 7.452-18.158 1.376-3 2.788-5.842h35.81v-16h-26.836c13.286-20.8 28.136-32 42.951-32 15.058 0 29.879 11.56 42.939 32h-27.054v16h36.023a244.411 244.411 0 0 1 10.233 24h-22.256v16h27.655c3.089 10 5.9 20.694 8.37 32h-28.025v16h31.232c.012.066.025.131.037.2-21.262 13.372-39.9 33.552-63.268 76.981v-13.181h-32.001v16h30.493c-4.884 9.205-9.979 19.428-15.347 30.806a120.49 120.49 0 0 0 -32.476-33.217c-14.754-10.307-32.334-18.343-52.608-24.08q.553-6.809 1.251-13.509zm-81.535 18.894c36.536.6 87.666 6.6 123.758 31.832 23.853 16.673 38.572 40.019 43.75 69.388 17.012 96.484 18.795 164.064 4.77 180.779-1.828 2.178-3.639 3.107-6.056 3.107-1.583 0-3.223.022-4.912.045h-.112c-34.488-30.326-34.976-103.302-34.976-104.045h-8-8c0 2.972.375 64.271 28.293 102.638-9.169-1.882-18.486-6.111-27.4-15.467-20.835-21.872-34.933-67.478-41.9-135.551-3.906-38.165-29.567-75.083-74.208-106.763a341.575 341.575 0 0 0 -40.035-24.315 439.768 439.768 0 0 1 45.028-1.648z"/><path d="m224 176h48v16h-48z"/><path d="m224 136h48v16h-48z"/><path d="m224 88h48v16h-48z"/></svg>