<?xml version="1.0" encoding="iso-8859-1"?>
<!-- Generator: Adobe Illustrator 19.0.0, SVG Export Plug-In . SVG Version: 6.00 Build 0)  -->
<svg xmlns="http://www.w3.org/2000/svg" xmlns:xlink="http://www.w3.org/1999/xlink" version="1.1" id="Layer_1" x="0px" y="0px" viewBox="0 0 504.992 504.992" style="enable-background:new 0 0 504.992 504.992;" xml:space="preserve" width="512" height="512">
<g>
	<path d="M465.438,129.298c-0.435-3.508-3.26-6.236-6.781-6.548c-66.84-5.92-132.233,12.079-185.739,50.055   c-10.66-38.224-28.944-72.996-54.493-103.478c-2.661-3.174-7.392-3.591-10.566-0.93c-3.174,2.661-3.591,7.392-0.93,10.566   c25.431,30.34,43.255,65.177,53.07,103.59c-9.283,7.435-18.166,15.486-26.558,24.178c-22.218,23.005-33.839,54.684-34.029,92.314   c-33.114-24.511-71.855-40.352-113.007-46.039c-2.846-6.474-5-13.224-6.399-20.126C64.501,156.447,83.263,78.142,131.51,17.038   c21.081,11.577,40.45,25.937,57.651,42.748c2.961,2.895,7.71,2.842,10.606-0.122c2.895-2.962,2.841-7.71-0.122-10.606   C179.932,29.791,157.52,13.57,133.034,0.845c-3.138-1.63-6.985-0.849-9.238,1.875C69.81,67.994,48.491,152.97,65.305,235.86   c1.058,5.222,2.5,10.366,4.284,15.396c-6.558-0.458-13.161-0.674-19.804-0.614c-3.535,0.032-6.567,2.527-7.278,5.99   c-8.968,43.631-6.084,88.846,8.337,130.755c1.348,3.917,5.617,5.999,9.532,4.651c3.917-1.348,5.999-5.616,4.651-9.532   c-12.887-37.448-15.964-77.714-8.982-116.841c68.465,1.147,132.298,31.847,175.907,84.839   c39.458,47.95,11.659,119.176,4.811,134.776c-16.633,3.743-91.778,17.383-131.321-30.668   c-11.482-13.954-21.314-29.17-29.221-45.226c-1.831-3.716-6.327-5.246-10.042-3.415c-3.716,1.83-5.245,6.326-3.415,10.042   c8.417,17.092,18.88,33.285,31.096,48.13c21.054,25.585,53.837,39.687,94.804,40.78c1.777,0.047,3.529,0.069,5.26,0.069   c27.837,0,49.184-5.789,50.133-6.05c2.053-0.566,3.769-1.978,4.719-3.883c0.466-0.936,11.48-23.25,16.53-53.207   c2.919-17.313,3.196-33.608,0.914-48.596c8.382,0.96,16.565,1.45,24.512,1.45c10.601,0,20.788-0.854,30.492-2.563   c27.602-4.861,50.533-16.58,68.157-34.833C448.136,296.471,475.858,213.364,465.438,129.298z M378.59,346.891   c-18.357,19.011-53.258,39.491-115.8,30.812c-4.014-13.686-10.446-26.025-19.256-36.73c-8.84-10.743-18.467-20.619-28.755-29.586   c-2.538-39.665,7.359-71.361,29.451-94.236c54.175-56.105,129.317-85.043,207.005-79.929   C459.058,214.685,432.768,290.792,378.59,346.891z"/>
	<path d="M349.406,232.642l-79.297,81.353c-2.891,2.966-2.831,7.714,0.136,10.605c1.458,1.421,3.347,2.129,5.234,2.129   c1.952,0,3.901-0.757,5.371-2.265l79.297-81.353c2.891-2.966,2.831-7.714-0.136-10.605   C357.045,229.615,352.296,229.676,349.406,232.642z"/>
	<path d="M401.795,177.623l-25.585,27.262c-2.834,3.02-2.684,7.767,0.336,10.601c1.447,1.358,3.291,2.031,5.131,2.031   c1.999,0,3.994-0.795,5.47-2.368l25.585-27.262c2.834-3.02,2.684-7.767-0.336-10.601   C409.377,174.452,404.63,174.603,401.795,177.623z"/>
	<path d="M142.607,71.721c-4.06,0.823-6.683,4.782-5.859,8.841l35.593,175.441c0.721,3.557,3.849,6.01,7.342,6.01   c0.494,0,0.996-0.049,1.499-0.151c4.06-0.823,6.683-4.782,5.859-8.841L151.448,77.58C150.625,73.52,146.664,70.895,142.607,71.721z   "/>
</g>















</svg>
